<svg width="1248" height="46" viewBox="0 0 1248 46" fill="none" xmlns="http://www.w3.org/2000/svg">
<g opacity="0.3">
<path d="M37.5616 22.9998C37.5616 28.0216 35.5829 32.8378 32.0608 36.3887C28.5387 39.9397 23.7618 41.9346 18.7808 41.9346C13.7998 41.9346 9.02284 39.9397 5.50076 36.3887C1.97868 32.8378 0 28.0216 0 22.9998C0 17.978 1.97868 13.1618 5.50076 9.61083C9.02284 6.05986 13.7998 4.06494 18.7808 4.06494C23.7618 4.06494 28.5387 6.05986 32.0608 9.61083C35.5829 13.1618 37.5616 17.978 37.5616 22.9998Z" fill="#202430"/>
<path d="M18.9369 33.5529C13.776 33.5713 8.40619 29.1376 8.37893 22.0015C8.36984 17.2838 10.8958 12.7494 14.1122 10.0562C17.265 7.42708 21.5718 5.7507 25.4788 5.73237C25.9347 5.71507 26.3907 5.76444 26.8326 5.87894C25.1173 6.26011 23.5796 7.21351 22.4683 8.58496C21.357 9.9564 20.737 11.6657 20.7086 13.4364C20.7086 13.5646 20.7086 13.6929 20.7268 13.7479C26.451 15.1494 29.0405 18.6304 29.0587 23.4489C29.0551 24.7832 28.7902 26.1038 28.279 27.3346C27.7678 28.5654 27.0206 29.6823 26.0801 30.6212C25.1396 31.5601 24.0244 32.3023 22.7985 32.8055C21.5727 33.3086 20.2604 33.5626 18.9369 33.5529Z" fill="white"/>
<path d="M49.6903 30.8416L43.957 17.0183H47.7096L51.2985 26.1972L54.7694 17.0183H58.3493L52.7705 30.8416H49.6903ZM68.3348 23.8612C68.3389 23.3052 68.2717 22.751 68.1349 22.2123C68.0192 21.7356 67.8158 21.2851 67.5352 20.8841C67.2824 20.5205 66.9536 20.2172 66.5721 19.9955C66.1651 19.7639 65.7038 19.6468 65.2365 19.6565C64.7691 19.6463 64.3077 19.7634 63.9008 19.9955C63.5153 20.2152 63.1832 20.5187 62.9286 20.8841C62.6502 21.2885 62.4498 21.7423 62.338 22.2215C62.2019 22.7572 62.1348 23.3083 62.1381 23.8612C62.1336 24.4173 62.2008 24.9716 62.338 25.5101C62.4524 25.9854 62.646 26.4376 62.9104 26.8476C63.1618 27.234 63.5061 27.5501 63.9112 27.7663C64.3163 27.9825 64.7691 28.0919 65.2274 28.0842C65.6855 28.0983 66.1394 27.9916 66.5441 27.7747C66.9488 27.5578 67.2904 27.2383 67.5352 26.8476C67.8119 26.4443 68.0149 25.9945 68.1349 25.5193C68.2729 24.9778 68.3401 24.4203 68.3348 23.8612ZM71.7966 23.8704C71.7967 24.7719 71.6588 25.6679 71.3877 26.527C71.1234 27.3744 70.7077 28.1661 70.1611 28.8629C69.5749 29.6062 68.8241 30.2006 67.9688 30.5983C67.1136 30.996 66.1777 31.186 65.2365 31.153C64.2942 31.1838 63.3577 30.9929 62.5013 30.5954C61.645 30.1979 60.8922 29.6047 60.3028 28.8629C59.7573 28.1653 59.3418 27.3739 59.0761 26.527C58.5362 24.8071 58.5362 22.9611 59.0761 21.2413C59.342 20.4029 59.7577 19.6205 60.3028 18.9329C60.8574 18.2448 61.5553 17.6881 62.3471 17.3023C63.2491 16.8711 64.2384 16.6578 65.2365 16.6794C66.1718 16.6533 67.1008 16.8427 67.9526 17.2332C68.8044 17.6237 69.5566 18.205 70.152 18.9329C70.6971 19.6107 71.1151 20.3802 71.3877 21.2413C71.6603 22.1024 71.7966 22.9818 71.7966 23.8704ZM82.3908 20.0688C81.7889 19.8131 81.1448 19.6733 80.4919 19.6565C79.9814 19.6316 79.4729 19.7359 79.0126 19.9599C78.5524 20.1839 78.1551 20.5205 77.8569 20.939C77.5699 21.3411 77.3547 21.7906 77.2209 22.2673C77.0799 22.7585 77.0096 23.2675 77.0119 23.7788C77.0088 24.3337 77.0698 24.887 77.1936 25.4277C77.3029 25.9161 77.4966 26.3812 77.7661 26.8018C78.0114 27.1888 78.3407 27.5145 78.7292 27.7545C79.1108 27.9926 79.5742 28.1209 80.0921 28.1209C80.5603 28.1104 81.0188 27.9846 81.4277 27.7545C81.8196 27.5683 82.1528 27.2766 82.3908 26.9117V20.0688ZM82.6725 30.8416L82.5362 29.7789C82.1742 30.1754 81.7431 30.5015 81.2642 30.7408C80.5697 31.0403 79.8176 31.1793 79.0629 31.1476C78.3083 31.1159 77.5702 30.9143 76.9029 30.5576C76.1874 30.1607 75.5671 29.6104 75.0857 28.9453C74.5773 28.246 74.1958 27.4613 73.959 26.6277C73.7038 25.7344 73.5753 24.8092 73.5774 23.8796C73.5774 22.9727 73.7046 22.0932 73.9681 21.2322C74.2244 20.3961 74.6343 19.6162 75.1765 18.9329C75.7622 18.2008 76.5087 17.6161 77.3571 17.225C78.2055 16.8339 79.1325 16.6471 80.0648 16.6794C80.7917 16.6794 81.564 16.8168 82.3908 17.0824V11.7235H85.9162V30.8416H82.6725ZM95.8381 24.3559C95.0608 24.4084 94.2872 24.5063 93.5212 24.649C92.758 24.8048 92.231 25.0613 91.9311 25.4368C91.6504 25.7799 91.4963 26.2105 91.495 26.6552C91.495 27.1132 91.6586 27.4797 91.9947 27.7545C92.4017 28.0549 92.8994 28.2038 93.4031 28.1759C93.8574 28.1759 94.3117 28.0842 94.7387 27.8919C95.1426 27.7141 95.5142 27.4695 95.8381 27.1682V24.3559ZM96.1198 30.8232L95.9835 29.7973C95.5805 30.2372 95.0833 30.5787 94.5297 30.7958C93.3655 31.2603 92.0729 31.2799 90.8953 30.8507C90.0498 30.5665 89.3172 30.0162 88.8052 29.2807C88.2932 28.5452 88.029 27.6634 88.0514 26.7651C88.0397 26.1602 88.1674 25.5607 88.4243 25.0139C88.6813 24.4671 89.0606 23.9879 89.5324 23.6139C90.0092 23.2399 90.5391 22.9404 91.1043 22.7253C92.1865 22.3384 93.3131 22.0921 94.457 21.9925L95.82 21.8642V21.6627C95.82 20.9024 95.6201 20.3619 95.2294 20.0321C94.7638 19.6833 94.191 19.5113 93.612 19.5466C92.5823 19.5518 91.5793 19.8782 90.7409 20.481C90.5576 20.5983 90.3816 20.7268 90.2139 20.8657L89.0418 18.3741C89.604 17.944 90.2214 17.5927 90.8772 17.3298C92.5851 16.614 94.4806 16.4915 96.2652 16.9817C96.8787 17.175 97.4402 17.5076 97.9064 17.9538C98.3726 18.4 98.7312 18.9481 98.9546 19.5558C99.2277 20.322 99.3571 21.1328 99.3362 21.9467V30.8324L96.1198 30.8232ZM110.23 14.8747C109.602 14.5913 108.919 14.4535 108.231 14.4717C107.75 14.4717 107.332 14.6182 107.005 14.9205C106.669 15.2137 106.505 15.6992 106.505 16.3679V17.0183H109.467V19.8856H106.532V30.8416H103.007V19.8856H101.19V17.0183H103.007V16.2855C103.007 15.3786 103.125 14.6182 103.352 13.9953C103.538 13.4373 103.85 12.9311 104.266 12.5174C104.681 12.1037 105.186 11.7941 105.742 11.6136C107.361 11.1777 109.076 11.2838 110.63 11.9159L110.23 14.8747ZM119.843 23.8612C119.846 23.3053 119.779 22.7513 119.643 22.2123C119.528 21.7356 119.324 21.2851 119.044 20.8841C118.791 20.5205 118.462 20.2172 118.081 19.9955C117.674 19.7639 117.212 19.6468 116.745 19.6565C116.278 19.6463 115.816 19.7634 115.409 19.9955C115.025 20.2166 114.693 20.5199 114.437 20.8841C114.158 21.2894 113.955 21.7426 113.837 22.2215C113.561 23.3031 113.561 24.4377 113.837 25.5193C113.957 25.9914 114.154 26.4402 114.419 26.8476C114.667 27.2255 115 27.5392 115.391 27.7636C115.807 27.9895 116.273 28.1031 116.745 28.0934C117.202 28.1049 117.655 27.996 118.058 27.7776C118.461 27.5591 118.801 27.2386 119.044 26.8476C119.32 26.4443 119.523 25.9945 119.643 25.5193C119.78 24.9774 119.847 24.4202 119.843 23.8612ZM123.305 23.8704C123.307 24.772 123.169 25.6683 122.896 26.527C122.633 27.3751 122.218 28.167 121.67 28.8629C121.083 29.6062 120.333 30.2006 119.477 30.5983C118.622 30.996 117.686 31.186 116.745 31.153C115.803 31.1838 114.866 30.9929 114.01 30.5954C113.154 30.1979 112.401 29.6047 111.811 28.8629C111.266 28.1653 110.85 27.3739 110.585 26.527C110.038 24.8083 110.038 22.96 110.585 21.2413C110.848 20.4035 111.26 19.6212 111.802 18.9329C112.359 18.2437 113.061 17.687 113.856 17.3023C114.758 16.8711 115.747 16.6578 116.745 16.6794C117.68 16.6533 118.609 16.8427 119.461 17.2332C120.313 17.6237 121.065 18.205 121.661 18.9329C122.206 19.6107 122.624 20.3802 122.896 21.2413C123.169 22.1024 123.305 22.9818 123.305 23.8704ZM134.254 30.8416V22.9635C134.308 22.0979 134.078 21.2383 133.6 20.5176C133.387 20.2378 133.111 20.0135 132.795 19.8637C132.479 19.7138 132.132 19.6428 131.782 19.6565C131.243 19.6503 130.714 19.7997 130.256 20.0871C129.817 20.3547 129.411 20.6746 129.047 21.0398V30.8416H125.522V17.0183H128.739L128.902 18.1176C130.011 17.1853 131.41 16.6762 132.854 16.6794C133.581 16.6794 134.245 16.7893 134.853 17.0091C135.447 17.2255 135.981 17.5839 136.407 18.0534C136.852 18.5298 137.189 19.1527 137.425 19.913C137.661 20.6825 137.779 21.5986 137.779 22.6612V30.8416H134.254ZM148.746 22.2673C148.72 21.8374 148.618 21.4156 148.446 21.0215C148.306 20.6968 148.102 20.4039 147.846 20.1604C147.406 19.7496 146.829 19.5207 146.229 19.5191C145.585 19.5308 144.966 19.7745 144.485 20.2062C144.194 20.4671 143.959 20.7838 143.792 21.1378C143.625 21.4917 143.53 21.8758 143.512 22.2673H148.746ZM143.431 24.8231C143.503 25.9865 143.867 26.8293 144.521 27.3422C145.241 27.8821 146.123 28.1569 147.02 28.1209C147.858 28.1199 148.689 27.9646 149.473 27.6629C149.76 27.548 150.04 27.4134 150.309 27.2598C150.492 27.1546 150.663 27.0286 150.818 26.8842L151.762 29.7789C151.228 30.1436 150.643 30.4275 150.027 30.6217C148.902 30.9695 147.733 31.1485 146.556 31.153C145.69 31.1561 144.83 31.0105 144.012 30.7225C143.218 30.443 142.495 29.9894 141.895 29.3942C141.26 28.7531 140.765 27.9856 140.441 27.1407C140.057 26.1173 139.872 25.0286 139.896 23.9345C139.896 22.762 140.069 21.736 140.396 20.8383C140.803 19.6075 141.589 18.5401 142.64 17.7919C143.691 17.0437 144.952 16.6539 146.238 16.6794C147.066 16.671 147.889 16.817 148.664 17.1099C149.4 17.3939 150.036 17.8428 150.572 18.4382C151.117 19.0428 151.544 19.8214 151.853 20.7833C152.171 21.736 152.326 22.8719 152.326 24.191V24.8231H143.431Z" fill="#202430"/>
</g>
<g opacity="0.3" clip-path="url(#clip0_1300_45132)">
<path d="M251.539 7.44629H257.479V13.4162H251.539V7.44629Z" fill="#202430"/>
<path d="M257.332 38.5512V17.0297H251.688V38.5299H257.332L257.332 38.5512ZM294.707 38.7636V33.4948C293.883 33.4948 293.185 33.4523 292.678 33.3674C292.086 33.2824 291.642 33.0699 291.346 32.7725C291.05 32.4751 290.859 32.0501 290.754 31.4765C290.669 30.9453 290.627 30.2443 290.627 29.3945V21.8949H294.707V17.0297H290.627V8.65911H284.983V29.4583C284.983 31.2216 285.131 32.7087 285.426 33.8985C285.722 35.067 286.23 36.023 286.927 36.7453C287.625 37.4677 288.555 37.9775 289.676 38.2963C290.817 38.6149 292.255 38.7636 293.967 38.7636H294.707ZM327.009 38.5512V7.00195H321.364V38.5512H327.009ZM279.55 19.1543C277.986 17.4546 275.787 16.6048 272.996 16.6048C271.644 16.6048 270.396 16.881 269.297 17.4334C268.177 17.9858 267.246 18.7506 266.485 19.7278L266.189 20.1315V17.0297H260.63V38.5299H266.232V27.0787V27.4824C266.295 25.4641 266.781 23.9769 267.712 23.0209C268.705 22.0011 269.91 21.4913 271.284 21.4913C272.912 21.4913 274.159 22.0011 274.984 22.9784C275.787 23.9557 276.21 25.3366 276.21 27.1V38.5299H281.896V26.3351C281.917 23.2758 281.114 20.8539 279.55 19.1543ZM318.447 27.7585C318.447 26.2077 318.172 24.763 317.644 23.4033C317.094 22.0648 316.333 20.8751 315.382 19.8553C314.409 18.8356 313.246 18.0495 311.894 17.4759C310.541 16.9022 309.04 16.626 307.412 16.626C305.869 16.626 304.41 16.9235 303.057 17.4971C301.704 18.092 300.52 18.8781 299.527 19.8766C298.533 20.8751 297.73 22.0649 297.159 23.4246C296.567 24.7843 296.292 26.2502 296.292 27.8011C296.292 29.352 296.567 30.8179 297.117 32.1776C297.666 33.5373 298.449 34.727 299.421 35.7256C300.394 36.7241 301.598 37.5314 302.994 38.105C304.389 38.6999 305.932 38.9974 307.581 38.9974C312.359 38.9974 315.318 36.8091 317.094 34.7695L313.035 31.6677C312.189 32.6875 310.16 34.0685 307.623 34.0685C306.038 34.0685 304.727 33.7072 303.734 32.9637C302.74 32.2413 302.064 31.2216 301.704 29.9681L301.641 29.7769H318.447V27.7585ZM301.683 25.7828C301.683 24.2106 303.48 21.47 307.348 21.4488C311.217 21.4488 313.035 24.1894 313.035 25.7615L301.683 25.7828ZM333.435 35.8318C333.329 35.5769 333.181 35.3644 332.991 35.1732C332.801 34.982 332.59 34.8333 332.336 34.727C332.082 34.6208 331.807 34.5571 331.533 34.5571C331.237 34.5571 330.983 34.6208 330.729 34.727C330.476 34.8333 330.264 34.982 330.074 35.1732C329.884 35.3644 329.736 35.5769 329.63 35.8318C329.524 36.0867 329.461 36.3629 329.461 36.6391C329.461 36.9365 329.524 37.1914 329.63 37.4465C329.736 37.7013 329.884 37.9138 330.074 38.105C330.264 38.2963 330.476 38.445 330.729 38.5512C330.983 38.6574 331.258 38.7211 331.533 38.7211C331.829 38.7211 332.082 38.6574 332.336 38.5512C332.59 38.445 332.801 38.2963 332.991 38.105C333.181 37.9138 333.329 37.7014 333.435 37.4465C333.541 37.1915 333.604 36.9153 333.604 36.639C333.604 36.3627 333.541 36.0867 333.435 35.8318H333.435ZM333.097 37.319C333.012 37.5314 332.886 37.7226 332.737 37.8714C332.59 38.0201 332.399 38.1475 332.188 38.2325C331.977 38.3175 331.765 38.3599 331.511 38.3599C331.279 38.3599 331.046 38.3175 330.835 38.2325C330.624 38.1476 330.433 38.0201 330.285 37.8713C330.137 37.7226 330.01 37.5314 329.926 37.319C329.841 37.1065 329.799 36.894 329.799 36.6391C329.799 36.4054 329.841 36.1717 329.926 35.9593C330.01 35.7468 330.137 35.5556 330.285 35.4069C330.433 35.2582 330.624 35.1307 330.835 35.0456C331.046 34.9607 331.258 34.9182 331.511 34.9182C331.744 34.9182 331.977 34.9608 332.188 35.0457C332.399 35.1307 332.59 35.2582 332.737 35.407C332.886 35.5556 333.012 35.7467 333.097 35.9593C333.181 36.1718 333.224 36.3842 333.224 36.6391C333.224 36.894 333.181 37.1065 333.097 37.319ZM331.913 36.8303C332.082 36.8091 332.209 36.7453 332.315 36.6391C332.42 36.5329 332.484 36.3842 332.484 36.1717C332.484 35.938 332.42 35.768 332.272 35.6406C332.146 35.5131 331.913 35.4493 331.638 35.4493H330.708V37.8501H331.152V36.8728H331.469L332.061 37.8501H332.526L331.913 36.8303ZM331.68 36.4691H331.152V35.7893H331.68C331.744 35.7893 331.807 35.8105 331.871 35.8318C331.934 35.8531 331.976 35.8955 331.998 35.938C332.04 35.9805 332.04 36.0442 332.04 36.1292C332.04 36.2141 332.019 36.278 331.998 36.3204C331.955 36.3629 331.913 36.4054 331.871 36.4267C331.807 36.4479 331.744 36.4691 331.68 36.4691H331.68Z" fill="#202430"/>
</g>
<g opacity="0.3" clip-path="url(#clip1_1300_45132)">
<path d="M587.676 20.5237V34.9861H592.264V25.3445H609.045V34.9861H613.633V20.5237H587.676ZM591.74 15.835H609.438C611.929 15.3727 613.699 13.1274 614.223 11.0142H586.955C587.479 13.1274 589.315 15.3067 591.74 15.835ZM573.714 34.9861C576.008 33.9955 577.254 32.2785 577.778 30.2974H557.131V11.0802H552.477V34.9861H573.714ZM518.064 15.7689H534.451C536.942 15.0425 538.974 13.1274 539.498 11.0802H513.541V25.2124H534.779V30.1653H518.13C515.508 30.8917 513.279 32.6748 512.165 34.9861H539.367V20.5237H518.13L518.064 15.7689ZM477.686 15.835H495.384C497.875 15.3727 499.711 13.1274 500.169 11.0142H472.836C473.36 13.1274 475.196 15.3067 477.686 15.835ZM477.686 25.2785H495.384C497.875 24.8162 499.711 22.5709 500.169 20.4577H472.836C473.36 22.5709 475.196 24.7502 477.686 25.2785ZM477.686 34.9861H495.384C497.875 34.5238 499.711 32.2785 500.169 30.1653H472.836C473.36 32.2785 475.196 34.5238 477.686 34.9861Z" fill="#202430"/>
<path d="M431.605 11.0802C432.13 13.1934 433.965 15.3067 436.39 15.835H443.863L444.256 15.967V34.9201H448.91V15.967L449.303 15.835H456.776C459.267 15.1746 461.036 13.1934 461.561 11.0802V11.0142L431.605 11.0802Z" fill="#202430"/>
</g>
<g opacity="0.3" clip-path="url(#clip2_1300_45132)">
<path d="M739.65 35.1392H733.193L731.218 30.335H720.458L718.659 35.1392H712.309L722.01 10.8749H728.96L739.65 35.1392ZM725.573 16.6729L722.046 26.1007H729.454L725.573 16.6729ZM763.103 10.8749H768.324V35.1392H762.326V19.983L755.835 27.5959H754.918L748.427 19.983V35.1389H742.429V10.8749H747.65L755.376 19.8759L763.103 10.8749ZM783.522 10.8749C792.306 10.8749 796.821 16.3887 796.821 23.0417C796.821 30.0147 792.447 35.1392 782.851 35.1392H772.902V10.8749H783.522ZM778.9 30.692H782.815C788.848 30.692 790.648 26.5641 790.648 23.0057C790.648 18.8427 788.425 15.3215 782.745 15.3215H778.9V30.692H778.9ZM808.754 16.6282L801.191 9H828.724V36.7664L821.161 29.1391V16.6282H808.754ZM808.745 18.1567L800.959 26.0086V37H811.857L819.643 29.1481H808.745V18.1567Z" fill="#202430"/>
</g>
<g opacity="0.3">
<path d="M937.576 38.6074C937 38.6074 936.711 38.3594 936.711 37.861V37.7045C936.711 37.3914 936.975 36.9195 937.5 36.291C938.051 35.6373 938.326 34.9823 938.326 34.3286V13.6809H936.336C935.76 13.6809 935.235 13.9301 934.758 14.4273C934.313 14.9168 933.946 15.4728 933.669 16.0755C933.418 16.651 933.107 17.188 932.731 17.6852C932.355 18.1824 931.98 18.4316 931.604 18.4316H930.966C930.265 18.4316 929.951 18.0512 930.027 17.2927L930.778 11.9532C930.852 11.1429 931.278 10.7372 932.055 10.7372H951.358C952.109 10.7372 952.535 11.1429 952.634 11.9532L953.424 17.3312C953.473 17.672 953.411 17.9465 953.235 18.1559C953.06 18.3389 952.81 18.4304 952.484 18.4304H951.845C951.471 18.4304 951.095 18.1824 950.719 17.684C950.343 17.1856 950.018 16.651 949.743 16.0755C949.467 15.4735 949.092 14.9245 948.617 14.4261C948.14 13.9301 947.615 13.6809 947.039 13.6809H945.086V34.3286C945.086 34.9823 945.349 35.6373 945.875 36.291C946.425 36.9195 946.701 37.3902 946.701 37.7045V37.861C946.701 38.3594 946.401 38.6074 945.799 38.6074H937.576ZM969.37 34.3286C969.445 34.9571 969.583 35.4675 969.783 35.86C970.009 36.226 970.221 36.462 970.422 36.5667C970.647 36.6715 970.847 36.8015 971.023 36.9592C971.197 37.1157 971.286 37.312 971.286 37.548C971.286 38.4112 969.872 38.8434 967.042 38.8434C965.89 38.8434 965.026 38.6989 964.45 38.41C963.9 38.1235 963.549 37.6395 963.4 36.9592C962.447 38.3197 960.858 38.9999 958.629 38.9999C956.527 38.9999 954.812 38.4895 953.484 37.4685C952.183 36.4488 951.533 34.9703 951.533 33.0332C951.533 31.149 952.183 29.6838 953.484 28.6363C954.787 27.5648 956.389 27.0278 958.292 27.0278C959.769 27.0278 961.033 27.3541 962.086 28.0091V27.8911C961.834 25.3002 961.547 23.5472 961.22 22.6298C960.921 21.7148 960.319 21.2573 959.418 21.2573C958.843 21.2573 958.379 21.5318 958.029 22.0808C957.675 22.6383 957.409 23.2474 957.24 23.8867C957.085 24.5515 956.776 25.1702 956.339 25.6927C955.888 26.2429 955.287 26.5174 954.537 26.5174C953.76 26.5174 953.122 26.2814 952.622 25.8107C952.146 25.3399 951.907 24.7247 951.907 23.9662C951.907 22.448 952.634 21.3091 954.086 20.5506C955.537 19.7656 957.315 19.3731 959.418 19.3731C961.922 19.3731 963.987 20.0919 965.615 21.5318C967.266 22.9453 968.244 24.868 968.544 27.3023L969.37 34.3286ZM960.695 36.9978C961.271 36.9978 961.734 36.71 962.084 36.1345C962.46 35.559 962.647 34.9041 962.647 34.1721L962.497 32.3662C962.247 30.1942 961.472 29.1083 960.17 29.1083C959.594 29.1083 959.131 29.3563 958.78 29.8547C958.43 30.3243 958.254 30.966 958.254 31.7774C958.254 33.2426 958.467 34.4863 958.893 35.5061C959.343 36.5005 959.945 36.999 960.695 36.999V36.9978ZM972.93 38.6074C972.354 38.6074 972.066 38.3594 972.066 37.861V37.7045C972.066 37.3914 972.303 36.9195 972.78 36.291C973.28 35.6373 973.53 34.9823 973.53 34.3286V16.3897C973.53 15.7095 973.28 15.0546 972.78 14.4273C972.303 13.7724 972.066 13.3149 972.066 13.0524V12.8959C972.066 12.6069 972.342 12.306 972.892 11.9929L978.562 9.08779C979.089 8.85302 979.502 8.83978 979.802 9.04927C980.127 9.23227 980.29 9.52001 980.29 9.9125V34.3286C980.29 34.9823 980.565 35.6373 981.116 36.291C981.666 36.9195 981.942 37.3902 981.942 37.7045V37.861C981.942 38.3594 981.643 38.6074 981.042 38.6074H972.93ZM1003.53 35.3098C1003.65 35.4928 1004.03 35.8335 1004.65 36.3308C1005.3 36.828 1005.63 37.2855 1005.63 37.7045V37.861C1005.63 38.3594 1005.34 38.6074 1004.77 38.6074H996.879C996.304 38.6074 996.015 38.3462 996.015 37.8225V37.7045C996.015 37.3914 996.203 37.011 996.579 36.5655C996.955 36.096 997.03 35.6758 996.804 35.3098L993.5 30.1677L991.621 31.9737V34.3286C991.621 34.9823 991.896 35.6373 992.448 36.291C993.023 36.9195 993.312 37.3902 993.312 37.7045V37.861C993.312 38.3594 993.011 38.6074 992.411 38.6074H984.298C983.697 38.6074 983.397 38.3594 983.397 37.861V37.7045C983.397 37.3914 983.648 36.9195 984.148 36.291C984.649 35.6373 984.9 34.9823 984.9 34.3286V16.3897C984.9 15.7095 984.598 15.0546 983.998 14.4273C983.397 13.7724 983.097 13.3149 983.097 13.0524V12.8959C983.097 12.6069 983.372 12.306 983.922 11.9929L989.933 9.08779C990.459 8.87831 990.872 8.86627 991.172 9.04927C991.472 9.23227 991.623 9.52001 991.623 9.9125V28.5581L996.693 24.0047C996.993 23.7952 997.105 23.534 997.031 23.2198C996.985 22.9148 996.855 22.629 996.655 22.3951C996.46 22.1041 996.26 21.8163 996.055 21.5318C995.854 21.2188 995.754 20.9419 995.754 20.7071V20.5506C995.754 20.0269 996.041 19.7656 996.617 19.7656H1002.55C1003.13 19.7656 1003.41 20.0136 1003.41 20.5121V20.6686C1003.41 20.9816 1003.24 21.3091 1002.89 21.6498C1002.54 21.9628 1002.04 22.3433 1001.39 22.7875C1000.85 23.1345 1000.35 23.529 999.885 23.9662L997.481 26.2814L1003.53 35.3098ZM1011.1 17.4492C1009.82 17.4492 1008.78 17.0832 1007.98 16.35C1007.18 15.5915 1006.78 14.6488 1006.78 13.5243C1006.78 12.3987 1007.18 11.4692 1007.98 10.7372C1008.78 9.97872 1009.82 9.59827 1011.1 9.59827C1012.35 9.59827 1013.38 9.97751 1014.18 10.7372C1014.98 11.4692 1015.38 12.3987 1015.38 13.5243C1015.38 14.6488 1014.98 15.5915 1014.18 16.35C1013.38 17.0832 1012.35 17.4492 1011.1 17.4492ZM1007.08 38.6074C1006.48 38.6074 1006.18 38.3594 1006.18 37.861V37.7045C1006.18 37.3914 1006.43 36.9063 1006.93 36.2525C1007.43 35.5988 1007.68 34.9438 1007.68 34.2901V26.8316C1007.68 26.1514 1007.43 25.4964 1006.93 24.8692C1006.43 24.2142 1006.18 23.7688 1006.18 23.5328V23.3763C1006.18 23.0632 1006.47 22.7623 1007.04 22.4733L1012.71 19.5694C1013.24 19.3334 1013.65 19.3069 1013.95 19.4911C1014.25 19.6741 1014.4 19.9751 1014.4 20.3941V34.2901C1014.4 34.9438 1014.68 35.5976 1015.23 36.2525C1015.81 36.9063 1016.09 37.3902 1016.09 37.7045V37.861C1016.09 38.3582 1015.78 38.6074 1015.15 38.6074H1007.08ZM1025.5 38.9999C1023.6 38.9999 1022.1 38.3715 1021 37.1157C1019.92 35.86 1019.38 34.0673 1019.38 31.7377V22.4348H1017.95C1017.72 22.4403 1017.49 22.3559 1017.32 22.1988C1017.16 22.0108 1017.08 21.7742 1017.09 21.5318V20.6686C1017.09 20.0666 1017.38 19.7656 1017.95 19.7656H1018.67C1019.82 19.7656 1020.81 19.4117 1021.64 18.7061C1022.46 17.9717 1023 17.005 1023.25 15.801C1023.38 15.1208 1023.71 14.7801 1024.26 14.7801H1025.13C1025.8 14.7801 1026.14 15.1208 1026.14 15.801V19.7656H1030.01C1030.26 19.7656 1030.46 19.8571 1030.61 20.0401C1030.79 20.1966 1030.87 20.4061 1030.87 20.6686V21.5318C1030.88 21.655 1030.85 21.7775 1030.81 21.892C1030.76 22.0065 1030.7 22.1108 1030.61 22.1988C1030.53 22.2781 1030.44 22.3401 1030.34 22.3808C1030.23 22.4214 1030.12 22.4398 1030.01 22.4348H1026.14V31.8557C1026.14 32.5094 1026.3 33.0332 1026.63 33.4256C1026.96 33.7928 1027.36 33.9758 1027.83 33.9758C1028.91 33.9758 1029.73 33.4919 1030.31 32.5227C1030.49 32.2879 1030.69 32.1567 1030.91 32.1302C1031.14 32.0784 1031.32 32.1181 1031.47 32.2482C1031.65 32.3794 1031.74 32.5612 1031.74 32.7984C1031.74 34.4466 1031.17 35.8986 1030.05 37.1555C1028.95 38.3847 1027.43 38.9999 1025.5 38.9999Z" fill="#202430"/>
</g>
<g clip-path="url(#clip3_1300_45132)">
<path fill-rule="evenodd" clip-rule="evenodd" d="M1133.94 5.50055L1133.94 5.44652V1.1218H1138.24V32.8417L1138.24 32.9406V37.2204H1133.94V32.8957L1133.94 32.8417V5.50055ZM1177.68 24.0741C1177.79 30.6349 1181.83 35.8817 1186.71 35.7938C1191.59 35.7059 1195.46 30.3162 1195.35 23.7554C1195.24 17.1937 1191.19 11.9469 1186.31 12.0357C1181.43 12.1236 1177.57 17.5133 1177.68 24.0741ZM1213.29 16.1416C1213.4 16.3916 1213.14 15.768 1213.14 15.768L1213.29 16.1416ZM1216.22 43.3033C1216.42 42.9645 1216.69 42.4462 1217.02 41.7988L1216.22 43.3033ZM1216.47 13.8781C1216.53 14.0237 1216.59 14.1757 1216.65 14.3359L1218.1 17.9153L1216.47 13.8781ZM1198.45 31.8967C1201.11 34.3324 1203.5 35.5914 1206.57 35.5914C1209.7 35.6153 1212.48 34.0687 1212.48 31.0918C1212.48 28.6076 1210.3 27.1544 1206.4 25.4906C1203.1 24.0475 1200.64 23.0357 1199.36 20.9471C1199.51 21.8545 1199.6 22.7921 1199.6 23.7518C1199.6 31.8088 1193.81 38.3412 1186.66 38.3412C1179.52 38.3412 1173.73 31.8088 1173.73 23.7518C1173.73 18.8941 1175.84 14.5914 1179.07 11.9396H1170.32V32.8417L1170.32 32.925V37.2204H1166.43V33.0651C1166.44 32.9918 1166.44 32.9177 1166.44 32.8417V11.9396H1163.01V9.30884H1166.49C1166.94 4.00159 1170.19 1 1174.7 1C1177.63 1 1179.23 1.30767 1180.16 1.74079V5.33847C1180.15 5.60677 1180.15 5.77067 1180.15 5.77067C1180.11 5.76609 1180.01 5.76426 1180.01 5.76426C1178.6 4.45393 1177.21 3.47873 1173.97 3.4824C1171.39 3.4824 1169.68 5.60035 1170.28 9.30884H1184.82C1185.43 9.21269 1186.04 9.16233 1186.66 9.16233C1191.84 9.16233 1196.31 12.5998 1198.38 17.5646C1198.36 17.2889 1198.35 17.0014 1198.35 16.7011C1198.35 11.5211 1203.32 9.318 1208.48 9.32898C1208.67 9.32807 1208.87 9.32898 1209.06 9.33355C1210.87 9.30425 1213.46 9.9022 1215.04 10.3216L1218.1 17.9153L1222.48 28.6909L1222.99 30.4215L1223.57 28.6909L1229.1 14.8597C1230.12 11.0514 1234.16 9.40314 1238.63 9.4123C1240.85 9.40223 1242.49 9.67236 1244.45 10.3701V14.5529C1242.03 12.7774 1240.3 11.7454 1237.55 11.7454C1235.14 11.7454 1232.24 12.8241 1232.24 16.4099C1232.19 19.1047 1233.79 19.5973 1238.49 21.9515C1242.36 23.6446 1245.92 25.5135 1245.94 29.8419C1245.94 37.0584 1238.9 38.3082 1235.47 38.3192C1232.41 38.3192 1229.6 37.5565 1228.04 36.2462V31.4819L1228.29 31.6916C1231.08 34.3159 1233.54 35.6757 1236.72 35.6757C1239.85 35.6995 1242.64 34.152 1242.64 31.1752C1242.64 28.6909 1240.45 27.2377 1236.56 25.574C1232.83 23.9459 1230.38 22.8672 1229.38 20.1706C1227.87 23.9111 1220.8 41.286 1219.13 45H1215.32L1217.05 41.7494C1218 39.8502 1219.39 36.8706 1220.63 34.0201L1213.29 16.1416C1213.24 16.0326 1213.12 15.7579 1212.88 15.1948C1212.31 13.9 1211.79 12.7042 1210.2 12.1016C1209.36 11.8132 1208.45 11.6621 1207.4 11.6621C1204.99 11.6621 1201.9 12.7408 1201.9 16.3266C1201.85 19.0214 1203.64 19.514 1208.34 21.8673C1212.2 23.5613 1215.77 25.4302 1215.79 29.7586C1215.79 36.975 1208.74 38.224 1205.32 38.2359C1202.59 38.2359 1200.07 37.6325 1198.45 36.5776V31.8967ZM1146.27 9.57805L1146.32 12.7353L1146.31 12.9477L1146.36 12.9468C1146.41 12.8149 1146.47 12.7032 1146.54 12.6199C1148.12 10.9104 1150.11 9.21177 1154.84 9.21177C1159.37 9.21177 1162.3 13.097 1162.42 15.5427L1162.43 32.8417V32.9278V37.2204H1158.54V32.0624L1158.54 17.3356C1158.54 14.2864 1155.89 12.0815 1152.65 12.0815C1149.95 12.0815 1146.49 14.5318 1146.37 17.0124V32.8463L1146.37 32.9625V37.2241H1142.49V13.2133L1142.49 9.57805H1146.27Z" fill="#A0A1A4"/>
</g>
<defs>
<clipPath id="clip0_1300_45132">
<rect width="82.0647" height="32" fill="white" transform="translate(251.539 7)"/>
</clipPath>
<clipPath id="clip1_1300_45132">
<rect width="182.682" height="24" fill="white" transform="translate(431.605 11)"/>
</clipPath>
<clipPath id="clip2_1300_45132">
<rect width="116.465" height="28" fill="white" transform="translate(712.285 9)"/>
</clipPath>
<clipPath id="clip3_1300_45132">
<rect width="113" height="46" fill="white" transform="translate(1132.94)"/>
</clipPath>
</defs>
</svg>
